<?xml version="1.0" encoding="UTF-8"?>
<svg id="Layer_1" data-name="Layer 1" xmlns="http://www.w3.org/2000/svg" version="1.1" viewBox="0 0 500 500">
  <defs>
    <style>
      .cls-1 {
        fill: #fff;
        stroke-width: 0px;
      }
    </style>
  </defs>
  <path class="cls-1" d="M490.9,202.8c.3-.3.7-.4,1-.3s.5.4.5.8c.3.3.2.8-.5,1.5-29,12-58.5,23.3-88.4,34.1-29.9,10.8-59.9,20.9-89.9,30.5l33.3,175.8c.7,5.1-1.6,8.3-6.7,9.7-1,0-2.1,0-3.1-.3-1-.2-2-.4-3-.7-18.5-12-36.9-23.8-55.4-35.4-18.5-11.6-37.1-23.1-55.9-34.3-16.8-10.9-35.4-22.3-55.9-34.1-20.5-11.8-40-21.4-58.4-28.9-3.7-1.7-4.8-4.3-3.1-7.7.3-1.7,1.9-2.9,4.6-3.6,30.4-5.1,60.9-11.2,91.5-18.2,30.6-7,60.9-14.8,91-23.3l-3.6-17.4c-12.3-56.4-24.1-112.8-35.4-169.2-36.2,55.7-74.4,110.6-114.5,164.6-40.1,54-84.1,104.4-132,151.2-.3.3-.9.3-1.6,0-.3-.7-.3-1.2,0-1.6,22.6-27.7,44.5-55.9,65.9-84.6,21.3-28.7,41.9-57.7,61.8-87.1,20.5-29,40.4-58.6,59.7-88.7,19.3-30.1,38.2-60.2,56.6-90.2,2.1-3.7,5.3-5.6,9.8-5.6s2,.2,3,.5c1,.3,2.1.8,3.1,1.5,2.7,1.7,4.4,4.3,5.1,7.7,6.8,32.8,13.4,65.7,19.7,98.7,6.3,33,12.6,66,18.7,99.2l3.1,15.4c30.4-8.9,60.6-18.2,90.4-28.1,29.9-9.9,59.4-20.5,88.4-31.8ZM130.6,318.2c17.1,7.9,33.9,16.4,50.5,25.7,16.6,9.2,32.9,18.6,49,28.1,16.1,9.6,32.2,19.2,48.4,28.8,16.2,9.6,32.2,19.3,47.9,29.2l-32.3-154.3c-27,8.2-54.1,15.9-81.3,23-27.2,7.2-54.6,13.7-82.3,19.5Z"/>
</svg>